<svg id="compass" xmlns="http://www.w3.org/2000/svg" width="167.833" height="167.833" viewBox="0 0 167.833 167.833">
  <g id="_031---Compass" data-name="031---Compass" transform="translate(0 0)">
    <path id="Shape" d="M3.094,87.623l.806.21a81.416,81.416,0,0,0,78.1,78.1l.21.806a2.8,2.8,0,0,0,5.415,0l.21-.806a81.415,81.415,0,0,0,78.1-78.1l.806-.21a2.8,2.8,0,0,0,0-5.415l-.806-.21a81.416,81.416,0,0,0-78.1-78.1l-.21-.806a2.8,2.8,0,0,0-5.415,0L82,3.9A81.416,81.416,0,0,0,3.9,82l-.806.21a2.8,2.8,0,0,0,0,5.415Zm86.213,72.661,1.5-5.756a69.089,69.089,0,0,0,20.785-5,.138.138,0,0,0,.081-.017.538.538,0,0,1,.078-.05,69.682,69.682,0,0,0,37.683-37.669c.02-.039.05-.07.067-.112s0-.053.017-.081a69.143,69.143,0,0,0,4.99-20.785l5.756-1.5a75.855,75.855,0,0,1-70.96,70.971ZM106.68,32.369a2.8,2.8,0,0,0,3.656-1.513l1.729-4.171a63.773,63.773,0,0,1,16.268,10.858l-.641.641a2.8,2.8,0,1,0,3.955,3.955l.641-.641a63.794,63.794,0,0,1,10.858,16.268L138.975,59.5a2.8,2.8,0,0,0,2.14,5.169l4.2-1.737a63.5,63.5,0,0,1,3.463,14.593l-35.006-9.13,9.972-18.511a2.8,2.8,0,0,0-3.787-3.787l-18.511,9.972-9.13-35A63.559,63.559,0,0,1,106.9,24.526l-1.737,4.2A2.8,2.8,0,0,0,106.68,32.369ZM108.2,66.936l-4.2-1.1-1.1-4.2,11.5-6.2Zm-5.659,4.308,6.358,1.659.076.02,35.258,9.2H91.668Zm41.691,16.469L102.537,98.588,91.668,87.713ZM108.2,102.9l6.2,11.5-11.5-6.2,1.1-4.2Zm11.748,20.844a2.8,2.8,0,0,0,3.787-3.787l-9.972-18.511,35-9.13A63.56,63.56,0,0,1,145.3,106.9l-4.2-1.737a2.8,2.8,0,0,0-2.14,5.169l4.171,1.729a63.774,63.774,0,0,1-10.858,16.268l-.641-.641a2.8,2.8,0,0,0-3.955,3.955l.641.641a63.793,63.793,0,0,1-16.268,10.858l-1.729-4.171a2.8,2.8,0,1,0-5.169,2.14l1.737,4.2A63.5,63.5,0,0,1,92.3,148.774l9.13-35Zm40.34-43.215-5.756-1.5a69.12,69.12,0,0,0-5-20.788.133.133,0,0,0-.017-.078.707.707,0,0,1-.05-.076,69.7,69.7,0,0,0-37.705-37.705c-.028,0-.045-.039-.076-.05s-.053,0-.081-.017a69.142,69.142,0,0,0-20.785-4.99l-1.508-5.77a75.855,75.855,0,0,1,70.977,70.977ZM87.712,25.617,98.588,67.294,87.712,78.163Zm0,66.065,10.875,10.856L87.712,144.228Zm-5.594,52.547L71.243,102.537l10.875-10.87Zm-18.967-6.766a2.8,2.8,0,0,0-3.656,1.513l-1.729,4.171A63.773,63.773,0,0,1,41.5,132.287l.641-.641a2.8,2.8,0,0,0-3.955-3.955l-.641.641a63.794,63.794,0,0,1-10.858-16.268l4.17-1.729a2.8,2.8,0,1,0-2.14-5.169l-4.2,1.737a63.5,63.5,0,0,1-3.463-14.593l35,9.13-9.966,18.511a2.8,2.8,0,0,0,3.787,3.787l18.511-9.972,9.13,35a63.56,63.56,0,0,1-14.593-3.463l1.737-4.2a2.8,2.8,0,0,0-1.513-3.647ZM30.855,59.5l-4.17-1.729A63.774,63.774,0,0,1,37.543,41.5l.641.641a2.8,2.8,0,0,0,3.955-3.955l-.641-.641A63.794,63.794,0,0,1,57.767,26.685L59.5,30.856a2.8,2.8,0,1,0,5.169-2.14l-1.737-4.2A63.5,63.5,0,0,1,77.52,21.057L68.39,56.063,49.879,46.091a2.8,2.8,0,0,0-3.787,3.787L56.063,68.39l-35,9.13a63.559,63.559,0,0,1,3.463-14.593l4.2,1.737a2.8,2.8,0,0,0,2.14-5.169ZM25.617,87.713H78.163L67.294,98.588ZM66.949,108.2l-11.5,6.2,6.2-11.5,4.2,1.1ZM25.616,82.118l35.244-9.2.076-.02,6.358-1.659,10.87,10.875ZM55.453,55.439l11.5,6.2-1.1,4.2-4.2,1.1ZM82.118,25.617V78.163L71.243,67.294ZM80.524,9.561l-1.5,5.756A69.119,69.119,0,0,0,58.234,20.3a.133.133,0,0,0-.078.017.538.538,0,0,1-.078.05,69.709,69.709,0,0,0-37.7,37.705c0,.028-.039.045-.05.076s0,.053-.017.081a69.142,69.142,0,0,0-4.99,20.785l-5.756,1.5A75.855,75.855,0,0,1,80.524,9.547ZM15.3,90.809a69.12,69.12,0,0,0,5,20.788.133.133,0,0,0,.017.078,1.135,1.135,0,0,0,.07.115,69.665,69.665,0,0,0,37.683,37.666c.028.014.045.039.076.05s.056,0,.084.017a69.126,69.126,0,0,0,20.783,4.99l1.5,5.756A75.855,75.855,0,0,1,9.547,89.307Z" transform="translate(-0.999 -0.999)" fill="#fff"/>
  </g>
</svg>
