<svg xmlns="http://www.w3.org/2000/svg" width="178.883" height="188.833" viewBox="0 0 178.883 188.833">
  <g id="windows" transform="translate(-854.117 -467)">
    <g id="Grupo_20" data-name="Grupo 20">
      <g id="windows-2" data-name="windows" transform="translate(854.117 488)">
        <g id="Grupo_9" data-name="Grupo 9" transform="translate(0 12.946)">
          <g id="Grupo_8" data-name="Grupo 8">
            <path id="Caminho_16" data-name="Caminho 16" d="M164.446,177.291h-1.7V120.1a2.389,2.389,0,1,0-4.777,0v57.194H149.8V41.882a2.387,2.387,0,0,0-2.22-2.38l-.078,0c-.03,0-.06,0-.09,0H27.984c-.029,0-.057,0-.086,0l-.1,0c-.069.005-.137.014-.2.025-.021,0-.043.006-.064.01a2.343,2.343,0,0,0-.272.069l-.017.006a2.335,2.335,0,0,0-.24.094l-.062.03q-.1.048-.193.105c-.013.008-.026.013-.039.021l-.02.014a2.426,2.426,0,0,0-.226.164l-.007.007a2.4,2.4,0,0,0-.19.179c-.019.02-.037.041-.055.061q-.066.074-.126.153c-.016.021-.032.042-.048.064a2.333,2.333,0,0,0-.136.214l-.008.013a2.392,2.392,0,0,0-.12.254c-.007.016-.012.033-.018.049-.026.069-.049.14-.069.212-.007.025-.013.049-.019.074-.016.068-.029.136-.04.206,0,.025-.009.049-.011.074a2.4,2.4,0,0,0-.018.281v135.41H17.427V120.107a2.389,2.389,0,0,0-4.777,0v57.184h-1.7a5.33,5.33,0,0,0-5.323,5.323v6.442a5.33,5.33,0,0,0,5.323,5.323h153.5a5.33,5.33,0,0,0,5.323-5.323v-6.442A5.329,5.329,0,0,0,164.446,177.291ZM145.013,45.659V177.291H141.8l-30.043-11.231V61.436Zm-8.219-1.389L109.47,57.234a4.207,4.207,0,0,0-2.489,3.787V166.509a4.239,4.239,0,0,0,2.862,3.937l18.315,6.846H47.226l18.315-6.846a4.238,4.238,0,0,0,2.862-3.936V61.022a4.207,4.207,0,0,0-2.488-3.787L38.591,44.27ZM30.372,45.659,63.626,61.436V166.061l-30.043,11.23h-3.21ZM164.446,189.6H10.948a.547.547,0,0,1-.546-.546v-6.442a.547.547,0,0,1,.546-.546h153.5a.547.547,0,0,1,.546.546v6.442h0A.547.547,0,0,1,164.446,189.6Z" transform="translate(-5.624 -39.493)" fill="#fff"/>
          </g>
        </g>
        <g id="Grupo_11" data-name="Grupo 11" transform="translate(7.025)">
          <g id="Grupo_10" data-name="Grupo 10">
            <path id="Caminho_17" data-name="Caminho 17" d="M170.971,0H33.237a6.187,6.187,0,0,0-6.18,6.181V82.059a2.389,2.389,0,1,0,4.777,0V6.181a1.405,1.405,0,0,1,1.4-1.4H170.972a1.405,1.405,0,0,1,1.4,1.4v76a2.389,2.389,0,1,0,4.777,0v-76A6.189,6.189,0,0,0,170.971,0Z" transform="translate(-27.057)" fill="#fff"/>
          </g>
        </g>
        <g id="Grupo_13" data-name="Grupo 13" transform="translate(112.097 30.495)">
          <g id="Grupo_12" data-name="Grupo 12">
            <path id="Caminho_18" data-name="Caminho 18" d="M367.109,93.03a2.918,2.918,0,0,0-1.3.3l-16.68,8.343a2.744,2.744,0,0,0-1.537,2.46v40.029a2.876,2.876,0,0,0,2.9,2.815l16.66.108h.02a2.84,2.84,0,0,0,2.878-2.795V95.885A2.9,2.9,0,0,0,367.109,93.03ZM365.277,142.3l-12.905-.083V105.4l12.905-6.455Z" transform="translate(-347.595 -93.03)" fill="#fff"/>
          </g>
        </g>
        <g id="Grupo_15" data-name="Grupo 15" transform="translate(112.097 87.931)">
          <g id="Grupo_14" data-name="Grupo 14">
            <path id="Caminho_19" data-name="Caminho 19" d="M367.147,268.248l-16.662.167a2.881,2.881,0,0,0-2.892,2.818V313.31a2.751,2.751,0,0,0,1.759,2.558l16.678,6.625a2.945,2.945,0,0,0,4.023-2.652v-48.8A2.846,2.846,0,0,0,367.147,268.248Zm-1.871,48.806-12.905-5.127V273.174l12.905-.13Z" transform="translate(-347.594 -268.248)" fill="#fff"/>
          </g>
        </g>
        <g id="Grupo_17" data-name="Grupo 17" transform="translate(29.58 87.931)">
          <g id="Grupo_16" data-name="Grupo 16">
            <path id="Caminho_20" data-name="Caminho 20" d="M115.431,268.415l-16.69-.167a2.838,2.838,0,0,0-2.876,2.793v48.8a2.944,2.944,0,0,0,4.022,2.652l16.68-6.626a2.75,2.75,0,0,0,1.758-2.557V271.234A2.882,2.882,0,0,0,115.431,268.415Zm-1.884,43.512-12.905,5.126v-44.01l12.905.13Z" transform="translate(-95.865 -268.248)" fill="#fff"/>
          </g>
        </g>
        <g id="Grupo_19" data-name="Grupo 19" transform="translate(29.58 30.495)">
          <g id="Grupo_18" data-name="Grupo 18">
            <path id="Caminho_21" data-name="Caminho 21" d="M116.787,101.678l-16.681-8.343a2.94,2.94,0,0,0-4.242,2.55V144.3a2.841,2.841,0,0,0,2.878,2.795h.02l16.66-.108a2.876,2.876,0,0,0,2.9-2.816V104.138A2.745,2.745,0,0,0,116.787,101.678Zm-3.241,40.54-12.905.083V98.943l12.905,6.455Z" transform="translate(-95.864 -93.03)" fill="#fff"/>
          </g>
        </g>
      </g>
      <path id="Caminho_22" data-name="Caminho 22" d="M28.5,0A28.5,28.5,0,1,1,0,28.5,28.5,28.5,0,0,1,28.5,0Z" transform="translate(976 467)" fill="#ff2d2d"/>
      <path id="Icon_ionic-ios-close" data-name="Icon ionic-ios-close" d="M25.028,22.4l7.936-7.936a1.86,1.86,0,1,0-2.63-2.63L22.4,19.766,14.462,11.83a1.86,1.86,0,1,0-2.63,2.63L19.768,22.4l-7.936,7.936a1.86,1.86,0,1,0,2.63,2.63L22.4,25.025l7.936,7.936a1.86,1.86,0,1,0,2.63-2.63Z" transform="translate(982.104 473.104)" fill="#fff"/>
    </g>
  </g>
</svg>
